<svg width="81" height="69" viewBox="0 0 81 69" fill="none" xmlns="http://www.w3.org/2000/svg">
<path d="M30.7587 27.1772C29.6536 13.9519 37.4301 4.56465 43.3993 0C59.2198 27.5761 56.2374 44.6455 44.2419 55.1971C33.235 64.8792 14.3695 69.872 1.26404 68.259C8.9035 57.2336 29.5608 37.8374 44.2419 55.1971C46.7519 49.8038 31.6175 37.455 30.7587 27.1772Z" fill="#D75D63"/>
<path d="M22.9637 39.8178C15.4768 28.5922 14.3023 13.9748 19.1478 5.47757C21.8453 6.42799 24.3052 7.47046 26.5452 8.59082C47.489 19.0661 49.2128 36.3509 46.2484 48.8768C45.7066 51.1661 45.0083 53.2964 44.242 55.1971C41.7139 51.1943 28.6528 48.3476 22.9637 39.8178Z" fill="#E07486"/>
<path d="M11.7979 50.3738C30.1688 40.4299 41.0116 49.4386 44.242 55.1971C22.1631 75.422 5.61803 63.6464 0 55.2194C3.20228 55.2194 9.19952 51.989 11.7979 50.3738Z" fill="#B63D55"/>
<path d="M50.9836 48.0341C48.1184 51.5735 46.6999 60.0427 46.7701 62.7814C47.7813 69.186 49.2982 66.995 49.9302 65.0989C49.9302 57.346 51.7538 56.6789 54.7758 52.2476C57.4643 48.3052 62.5006 46.3487 63.6242 43.8206C69.5231 43.8206 69.0315 39.888 68.0484 37.9217C64.6775 34.7194 62.009 37.4301 61.0961 39.1857C54.1437 43.6099 54.5651 43.6099 50.9836 48.0341Z" fill="#813052"/>
<path d="M72.8939 21.6996C69.5231 18.9608 71.6298 15.8915 72.6832 17.1555C75.8254 20.6468 71.1091 30.9534 68.259 36.1164C71.2955 28.3213 73.5259 22.2132 72.8939 21.6996Z" fill="#743952"/>
<path d="M78.9517 24.5482C76.4896 21.0091 79.2916 18.7325 79.9504 20.2315C81.9913 24.4341 74.4742 33.3818 70.3658 37.5911C75.3647 30.897 79.4134 25.2118 78.9517 24.5482Z" fill="#743952"/>
</svg>
