<svg width="40" height="28" viewBox="0 0 40 28" fill="none" xmlns="http://www.w3.org/2000/svg">
<path d="M19.5373 11.3638C19.3002 11.3057 19.337 10.3896 19.3287 10.2354C19.2751 9.23764 19.4818 8.30296 20.218 7.56948C20.7581 7.03131 21.4988 6.96519 22.2255 6.89636C22.9645 6.82638 23.2206 7.08988 23.6182 7.68592C24.428 8.89998 25.4537 10.8856 25.0995 12.3993C24.7902 13.7209 23.1801 14.6743 21.8638 14.7017C20.2132 14.7361 19.6298 12.135 19.4838 10.9173C19.3514 9.81335 20.2044 8.41618 21.3296 8.06669C22.6789 7.64757 23.3581 8.90794 23.9656 9.88371C24.4423 10.6495 24.4126 11.224 23.5172 11.5128C22.5481 11.8254 22.2176 10.849 22.115 10.0764C22.0463 9.55947 21.9044 8.49086 22.8335 8.998C23.5396 9.38342 24.2575 10.853 23.8055 11.6038C23.3734 12.3214 22.6607 12.138 22.4834 11.4028C22.4196 11.1382 22.2785 10.6417 22.5349 10.4354C22.735 10.2743 22.9243 10.3583 23.0428 10.5685C23.3858 11.177 23.9262 12.5936 22.9461 12.9037C22.5221 13.0378 21.7073 12.6394 22.1992 12.1752C22.4786 11.9116 22.9177 11.8896 22.5723 12.3184" stroke="white" stroke-width="2.85858" stroke-linecap="round"/>
<path d="M24.4786 12.3753C25.733 12.0703 26.9526 11.7458 28.2859 11.534C28.72 11.465 29.3991 11.2816 29.9469 11.4711C33.6761 12.761 35.8649 15.5884 36.8501 18.0363" stroke="white" stroke-width="2.85858" stroke-linecap="round"/>
<path d="M20.4896 13.5011C19.3564 12.4434 17.5054 12.0082 15.9834 12.1234C15.2571 12.1783 14.5045 12.1191 13.7755 12.1902C13.0019 12.2657 11.9001 12.7004 11.4135 13.309C10.9572 13.8797 10.707 14.633 10.4768 15.3112C9.9607 16.832 9.56458 18.3869 9.17165 19.942C8.78698 21.4644 8.39139 22.995 7.93616 24.4966" stroke="white" stroke-width="2.85858" stroke-linecap="round"/>
<path d="M24.6589 7.6862C24.8301 6.56752 25.1567 5.51958 25.477 4.4374C25.5408 4.22204 25.5692 3.24421 25.8406 3.19604C27.4031 2.91879 29.1099 3.0429 30.6868 3.12136C31.7624 3.17486 32.8637 3.25344 33.9301 3.41428" stroke="white" stroke-width="2.85858" stroke-linecap="round"/>
<path d="M18.7768 7.36275C17.9727 6.17279 16.6498 5.20179 15.4891 4.36316C15.2251 4.17246 14.5238 3.48244 14.1571 3.58025C11.8865 4.186 9.70384 5.51982 7.69247 6.67078C5.62755 7.85238 3.67293 9.20189 1.58838 10.3495" stroke="white" stroke-width="2.85858" stroke-linecap="round"/>
<path d="M24.2827 11.3139C24.5531 11.2283 24.7924 11.0354 25.0196 10.8767C26.114 10.1123 27.1947 9.32921 28.2928 8.56991C29.032 8.0588 29.7952 7.54619 30.6014 7.13919C30.6738 7.10262 30.7344 7.07573 30.8186 7.07933C31.4471 7.10626 32.099 7.39063 32.6655 7.62943C33.9726 8.18041 35.1355 8.90893 36.1226 9.91163" stroke="white" stroke-width="2.85858" stroke-linecap="round"/>
<path d="M19.0536 9.81152C17.1809 8.79619 15.1554 7.8407 12.9688 8.08658C12.8569 8.09917 12.7505 8.11873 12.6453 8.16232C11.5776 8.60499 10.6229 9.43981 9.7332 10.1392C8.42996 11.1637 7.17663 12.2467 5.95957 13.3683C4.7814 14.4541 3.71931 15.604 2.65411 16.7928" stroke="white" stroke-width="2.85858" stroke-linecap="round"/>
</svg>
